<svg xmlns="http://www.w3.org/2000/svg" width="248" height="73.717" viewBox="0 0 248 73.717"><g transform="translate(-31.732 -192.332)"><g transform="translate(31.732 192.332)"><path d="M366.7,192.753a1.572,1.572,0,0,0-1.157-.421H348.933a1.455,1.455,0,0,0-1.577,1.577v70.442a1.455,1.455,0,0,0,1.577,1.577h16.612a1.455,1.455,0,0,0,1.577-1.577V193.909A1.571,1.571,0,0,0,366.7,192.753Z" transform="translate(-241.961 -192.332)" fill="#fff"/><path d="M242.488,203.687a20.484,20.484,0,0,0-7.623-8.358,20.99,20.99,0,0,0-11.2-3H200.012a1.455,1.455,0,0,0-1.577,1.577v70.442a1.455,1.455,0,0,0,1.577,1.577h16.612a1.455,1.455,0,0,0,1.577-1.577V239.223a.558.558,0,0,1,.631-.631h5.888a20.374,20.374,0,0,0,10.724-2.786,18.863,18.863,0,0,0,7.2-7.938,26.233,26.233,0,0,0,2.576-11.88A26.723,26.723,0,0,0,242.488,203.687Zm-22.057-1.9a3.236,3.236,0,0,1,1.413.36L225,203.972l.882-1.529.613,5.382-4.967,2.158.882-1.527-3.942-2.276v-1.773C218.494,202.637,219.281,201.8,220.431,201.79Zm-5.175,2c1.4-.74,3.248-1.773,3.248-1.773a3.764,3.764,0,0,0-.715,2.392l-.005,9.985h-5.178V208C212.606,205.793,213.337,204.8,215.257,203.788ZM213,223.225a3.224,3.224,0,0,1-.394-1.4V218.18h-1.765l4.354-3.223,4.352,3.222h-1.764v4.552l-1.536.887C214.7,224.479,213.589,224.215,213,223.225Zm9.288,3.673c-1.909,1.1-3.135.965-4.971-.191-1.34-.844-3.16-1.926-3.16-1.926a3.765,3.765,0,0,0,2.429-.576l8.65-4.988,2.589,4.484Zm12.987-7.954a3.237,3.237,0,0,1-1.018,1.043l-3.155,1.821.884,1.528-4.968-2.16.614-5.381.881,1.528,3.943-2.276,1.536.886C235.513,216.843,235.84,217.941,235.277,218.944Zm.858-5.481c-.061,1.583-.088,3.7-.088,3.7a3.766,3.766,0,0,0-1.714-1.815l-8.645-5,2.589-4.484,5.536,3.2C235.723,210.166,236.218,211.3,236.135,213.464Z" transform="translate(-142.768 -192.332)" fill="#fff"/><path d="M94.927,291.1l.423-1.1.623-1.651.231-.627-.08-.025-.361.588-.94,1.553-.621,1.04-.688,1.162-.73,1.245-.374.641c-.125.217-.25.435-.373.657-.247.442-.482.9-.7,1.36a13.872,13.872,0,0,0-.571,1.407c-.037.119-.077.237-.108.357l-.048.178,0,.005c0,.01,0-.014,0,.024l0,.01,0,.02-.009.04-.019.079-.018.079-.009.04-.008.047c-.01.063-.021.127-.03.189l-.013.094-.009.089c-.006.059-.012.118-.016.176a4.045,4.045,0,0,0,.121,1.313c.03.1.056.2.09.293s.071.186.108.275.083.173.125.256.092.16.137.235a1.632,1.632,0,0,0,.147.213,1.209,1.209,0,0,0,.174.179,1.932,1.932,0,0,0,.2.143,1.653,1.653,0,0,0,.212.107c.035.015.071.029.106.042a1.672,1.672,0,0,0,.771.1.659.659,0,0,0,.218-.058c.235-.12.256-.429.293-.629a1.69,1.69,0,0,0,0-.752c-.013-.053-.038-.1-.052-.157a5.945,5.945,0,0,1-.2-.743,9.109,9.109,0,0,1-.144-.929c0-.042-.008-.085-.012-.129l-.007-.065,0-.061c0-.04-.006-.081-.01-.123l0-.031v-.268c0,.035,0,.007,0,.014v0l0-.143c0-.1.007-.195.011-.294a6.4,6.4,0,0,1,.214-1.254c.121-.432.274-.874.443-1.32.084-.223.172-.447.261-.671l.266-.673.516-1.31Z" transform="translate(-70.85 -255.849)" fill="#fff"/><path d="M104.207,328.513c-.077.006-.153,0-.228,0h-.22c-.144-.01-.282-.014-.414-.024s-.256-.025-.374-.039l-.329-.049c-.1-.015-.193-.037-.277-.052l-.12-.022c-.038-.007-.073-.017-.106-.024l-.167-.04-.1-.024-.036-.008-.01.028.032.017.094.05.152.08a2.3,2.3,0,0,0,.212.1l.129.055c.045.018.092.041.142.058l.326.112c.118.034.245.069.379.1s.278.059.429.088l.231.031.12.016c.04.006.081.009.122.012.165.011.335.028.511.024.088,0,.177,0,.267,0l.274-.016c.093,0,.186-.015.279-.026l.142-.017c.047-.006.1-.011.143-.02l.287-.052.072-.014.072-.017.144-.036.145-.036c.049-.011.1-.029.144-.043.1-.029.193-.059.29-.091.189-.074.383-.142.568-.232s.369-.186.551-.283l.134-.083.125-.078c.082-.049.17-.115.255-.175.176-.12.33-.251.488-.38a7.365,7.365,0,0,0,.826-.853,6.873,6.873,0,0,0,.623-.912c.092-.149.163-.3.237-.451.019-.036.037-.073.052-.111l.047-.11.091-.215c.051-.143.1-.28.144-.411s.075-.258.106-.377.05-.232.072-.336.031-.2.044-.288l.017-.123c.006-.038.006-.075.009-.109l.012-.172.009-.143-.029,0-.04.137c-.027.089-.058.22-.116.382l-.043.129c-.016.044-.028.092-.049.14-.038.1-.078.2-.121.31l-.153.344c-.027.06-.06.12-.091.182l-.1.189-.11.192c-.039.064-.072.133-.116.2-.084.131-.167.268-.265.4-.048.067-.094.136-.145.2l-.158.2c-.051.069-.11.134-.167.2l-.087.1c-.029.033-.057.067-.089.1l-.186.194-.047.049-.05.046-.1.093c-.13.128-.275.243-.416.364s-.3.23-.449.328c-.077.051-.147.1-.236.154l-.127.076-.118.072c-.167.086-.33.18-.5.252s-.344.147-.516.216a8.533,8.533,0,0,1-1.048.3,8.107,8.107,0,0,1-1.015.147C104.521,328.5,104.362,328.505,104.207,328.513Z" transform="translate(-78.417 -279.227)" fill="#fff"/><path d="M69.421,193.7a1.64,1.64,0,0,0-1.787-1.367H48.5a1.639,1.639,0,0,0-1.788,1.367l-14.93,70.547q-.316,1.683,1.367,1.682H49.655a1.461,1.461,0,0,0,1.682-1.472l1.051-7.885a.605.605,0,0,1,.21-.421.714.714,0,0,1,.526-.21h9.252a.717.717,0,0,1,.526.21.611.611,0,0,1,.21.421l1.156,7.885a1.461,1.461,0,0,0,1.682,1.472H82.878q1.471,0,1.472-1.262v-.421ZM58.041,243a7.417,7.417,0,0,1-7.461-7.461c.1-5.664,5.858-9.515,7.463-16.333,1.935,7.04,7.363,11.064,7.459,16.333A7.414,7.414,0,0,1,58.041,243Z" transform="translate(-31.732 -192.332)" fill="#fff"/></g><g transform="translate(167.666 193.969)"><path d="M449.51,215.146l-.689-2.251c-.031-.061-.069-.092-.115-.092h-5.651c-.046,0-.084.031-.115.092l-.666,2.251a.289.289,0,0,1-.3.23h-2.917a.256.256,0,0,1-.207-.08.251.251,0,0,1-.023-.241l4.962-15.528a.288.288,0,0,1,.3-.23H447.7a.289.289,0,0,1,.3.23l4.961,15.528a.261.261,0,0,1,.023.115q0,.207-.252.207h-2.917A.288.288,0,0,1,449.51,215.146Zm-5.651-4.847H447.9c.092,0,.122-.046.092-.138l-2.067-6.822c-.016-.061-.038-.088-.069-.08a.107.107,0,0,0-.069.08l-2.021,6.822Q443.744,210.3,443.859,210.3Z" transform="translate(-438.81 -198.608)" fill="#fff"/><path d="M486.065,215.3a.264.264,0,0,1-.08-.2V199.572a.275.275,0,0,1,.276-.275h2.687a.275.275,0,0,1,.276.275V215.1a.275.275,0,0,1-.276.276H486.26A.265.265,0,0,1,486.065,215.3Z" transform="translate(-470.231 -198.608)" fill="#fff"/><path d="M502.16,215.3a.265.265,0,0,1-.08-.2V199.572a.274.274,0,0,1,.275-.275h2.687a.275.275,0,0,1,.276.275V215.1a.274.274,0,0,1-.276.276h-2.687A.265.265,0,0,1,502.16,215.3Z" transform="translate(-480.953 -198.608)" fill="#fff"/><path d="M518.486,200.346a1.888,1.888,0,1,1,1.3.517A1.76,1.76,0,0,1,518.486,200.346Zm-.276,13.575a.265.265,0,0,1-.08-.2V202.447a.274.274,0,0,1,.275-.276h2.687a.274.274,0,0,1,.276.276v11.278a.274.274,0,0,1-.276.275h-2.687A.265.265,0,0,1,518.21,213.921Z" transform="translate(-491.536 -197.233)" fill="#fff"/><path d="M541.165,212.058a4.4,4.4,0,0,1,1.826,1.413,3.306,3.306,0,0,1,.655,2v7.787a.274.274,0,0,1-.276.276h-2.688a.274.274,0,0,1-.276-.276V222.5a.092.092,0,0,0-.046-.092c-.031-.015-.061,0-.092.046a3.653,3.653,0,0,1-3.1,1.264,4.525,4.525,0,0,1-2.894-.873,3.082,3.082,0,0,1-1.1-2.573,3.293,3.293,0,0,1,1.241-2.745,5.607,5.607,0,0,1,3.537-.976h2.343a.1.1,0,0,0,.115-.115v-.505a1.532,1.532,0,0,0-.459-1.183,1.968,1.968,0,0,0-1.378-.425,2.484,2.484,0,0,0-1.183.253,1.179,1.179,0,0,0-.608.712.263.263,0,0,1-.3.23l-2.779-.367q-.275-.046-.253-.207a3.054,3.054,0,0,1,.77-1.746,4.483,4.483,0,0,1,1.792-1.217,6.791,6.791,0,0,1,2.492-.436A6.537,6.537,0,0,1,541.165,212.058Zm-1.447,8.717a1.635,1.635,0,0,0,.689-1.355v-.827a.1.1,0,0,0-.115-.115h-1.654a2.9,2.9,0,0,0-1.62.39,1.251,1.251,0,0,0-.586,1.1,1.191,1.191,0,0,0,.437.976,1.794,1.794,0,0,0,1.171.356A2.674,2.674,0,0,0,539.717,220.775Z" transform="translate(-501.661 -206.763)" fill="#fff"/><path d="M579.779,212.667a4.129,4.129,0,0,1,1.125,3.055v7.534a.274.274,0,0,1-.275.276h-2.687a.274.274,0,0,1-.276-.276v-6.868a2.149,2.149,0,0,0-.517-1.493,1.913,1.913,0,0,0-2.734,0,2.147,2.147,0,0,0-.517,1.493v6.868a.274.274,0,0,1-.276.276h-2.687a.274.274,0,0,1-.275-.276V212a.274.274,0,0,1,.275-.276h2.687a.275.275,0,0,1,.276.276v.8a.092.092,0,0,0,.046.092.045.045,0,0,0,.069-.023,3.209,3.209,0,0,1,2.8-1.332A4.008,4.008,0,0,1,579.779,212.667Z" transform="translate(-526.632 -206.763)" fill="#fff"/><path d="M608.806,222.8a5.01,5.01,0,0,1-1.918-2.527,8.432,8.432,0,0,1-.391-2.71,8.145,8.145,0,0,1,.391-2.664,4.765,4.765,0,0,1,1.906-2.458,5.656,5.656,0,0,1,3.193-.9,5.723,5.723,0,0,1,3.228.919,4.409,4.409,0,0,1,1.849,2.32,2.924,2.924,0,0,1,.183.827v.046a.244.244,0,0,1-.229.253l-2.641.39h-.046a.276.276,0,0,1-.276-.23l-.069-.367a1.747,1.747,0,0,0-.712-.988,2.205,2.205,0,0,0-1.309-.391,2.052,2.052,0,0,0-1.24.368,1.95,1.95,0,0,0-.712,1.011,5.646,5.646,0,0,0-.252,1.883,6.163,6.163,0,0,0,.23,1.884,2.043,2.043,0,0,0,.724,1.08,2.014,2.014,0,0,0,1.252.39,2.123,2.123,0,0,0,1.252-.379,1.937,1.937,0,0,0,.747-1.045.322.322,0,0,0,.023-.138.094.094,0,0,0,.023-.069q.022-.276.322-.23l2.641.413a.244.244,0,0,1,.23.252,3.226,3.226,0,0,1-.138.689,4.282,4.282,0,0,1-1.872,2.412,5.9,5.9,0,0,1-3.2.873A5.5,5.5,0,0,1,608.806,222.8Z" transform="translate(-550.503 -206.763)" fill="#fff"/><path d="M653.27,218.317a.268.268,0,0,1-.3.275h-7.1c-.092,0-.123.039-.092.115a4.116,4.116,0,0,0,.253.919,2.408,2.408,0,0,0,2.435,1.286,2.772,2.772,0,0,0,2.32-1.194.207.207,0,0,1,.368-.046l1.654,1.631a.318.318,0,0,1,.115.207.474.474,0,0,1-.092.184,5.01,5.01,0,0,1-1.952,1.459,6.529,6.529,0,0,1-2.618.517,5.964,5.964,0,0,1-3.342-.9,4.973,4.973,0,0,1-1.964-2.5,7.877,7.877,0,0,1-.482-3.009,6.606,6.606,0,0,1,.345-2.228,5.048,5.048,0,0,1,1.849-2.6,5.173,5.173,0,0,1,3.135-.965,5.107,5.107,0,0,1,3.687,1.332,5.828,5.828,0,0,1,1.688,3.56A9.856,9.856,0,0,1,653.27,218.317Zm-7.35-2.687a5.4,5.4,0,0,0-.161.735.1.1,0,0,0,.115.115h3.974c.092,0,.122-.038.092-.115q-.115-.666-.115-.643a1.98,1.98,0,0,0-.723-1.068,2.1,2.1,0,0,0-1.275-.379A1.841,1.841,0,0,0,645.919,215.63Z" transform="translate(-574.465 -206.717)" fill="#fff"/><path d="M450.209,282.393a4.376,4.376,0,0,1,1.78,1.757,5.279,5.279,0,0,1,.632,2.607,4.9,4.9,0,0,1-.654,2.55,4.459,4.459,0,0,1-1.838,1.711,5.865,5.865,0,0,1-2.722.609h-3.262a.1.1,0,0,0-.115.115V297.6a.274.274,0,0,1-.275.276h-2.687a.274.274,0,0,1-.275-.276V282.049a.274.274,0,0,1,.275-.276h6.478A5.521,5.521,0,0,1,450.209,282.393Zm-1.447,6.03a2.1,2.1,0,0,0,.643-1.6,2.165,2.165,0,0,0-.643-1.631,2.346,2.346,0,0,0-1.7-.62h-2.917a.1.1,0,0,0-.115.115v4.227a.1.1,0,0,0,.115.115h2.917A2.37,2.37,0,0,0,448.762,288.423Z" transform="translate(-440.13 -253.543)" fill="#fff"/><path d="M488.083,294.477a.285.285,0,0,1,.138.344l-.482,2.619q-.024.276-.322.161a2.549,2.549,0,0,0-.8-.115,3.782,3.782,0,0,0-.505.046,2.259,2.259,0,0,0-1.4.608,1.878,1.878,0,0,0-.574,1.436v6.271a.275.275,0,0,1-.276.276h-2.687a.274.274,0,0,1-.275-.276V294.591a.274.274,0,0,1,.275-.276h2.687a.275.275,0,0,1,.276.276v.873a.092.092,0,0,0,.046.092.045.045,0,0,0,.069-.023,2.917,2.917,0,0,1,2.526-1.378A2.333,2.333,0,0,1,488.083,294.477Z" transform="translate(-466.841 -261.79)" fill="#fff"/><path d="M506.969,305.25a5.048,5.048,0,0,1-1.883-2.756,8.164,8.164,0,0,1-.322-2.343,8.511,8.511,0,0,1,.322-2.435,4.933,4.933,0,0,1,1.907-2.665,5.619,5.619,0,0,1,3.307-.965,5.383,5.383,0,0,1,3.216.953,5.085,5.085,0,0,1,1.883,2.653,7.864,7.864,0,0,1,.368,2.412,8.089,8.089,0,0,1-.322,2.32,5.135,5.135,0,0,1-1.872,2.814,5.347,5.347,0,0,1-3.3,1.022A5.44,5.44,0,0,1,506.969,305.25Zm4.594-2.228a2.553,2.553,0,0,0,.758-1.263,6.623,6.623,0,0,0,.184-1.608,6.221,6.221,0,0,0-.184-1.631,2.556,2.556,0,0,0-.781-1.217,2.131,2.131,0,0,0-2.584,0,2.451,2.451,0,0,0-.746,1.217,5.463,5.463,0,0,0-.184,1.631,6.241,6.241,0,0,0,.161,1.608,2.512,2.512,0,0,0,.769,1.263,1.967,1.967,0,0,0,1.321.459A1.892,1.892,0,0,0,511.563,303.022Z" transform="translate(-482.74 -261.744)" fill="#fff"/><path d="M544.7,305.341a5.011,5.011,0,0,1-1.918-2.526,8.425,8.425,0,0,1-.391-2.711,8.133,8.133,0,0,1,.391-2.664,4.762,4.762,0,0,1,1.906-2.458,5.652,5.652,0,0,1,3.193-.9,5.721,5.721,0,0,1,3.227.919,4.407,4.407,0,0,1,1.849,2.32,2.928,2.928,0,0,1,.184.827v.046a.244.244,0,0,1-.229.253l-2.642.39h-.046a.276.276,0,0,1-.276-.23l-.069-.367a1.748,1.748,0,0,0-.712-.988,2.206,2.206,0,0,0-1.309-.391,2.052,2.052,0,0,0-1.24.368,1.946,1.946,0,0,0-.712,1.011,5.634,5.634,0,0,0-.253,1.883,6.155,6.155,0,0,0,.23,1.883,2.042,2.042,0,0,0,.724,1.08,2.014,2.014,0,0,0,1.252.39,2.123,2.123,0,0,0,1.252-.379,1.939,1.939,0,0,0,.747-1.045.322.322,0,0,0,.023-.138.1.1,0,0,0,.023-.069q.023-.275.322-.23l2.641.414a.244.244,0,0,1,.229.253,3.211,3.211,0,0,1-.138.689,4.283,4.283,0,0,1-1.872,2.412,5.9,5.9,0,0,1-3.2.873A5.5,5.5,0,0,1,544.7,305.341Z" transform="translate(-507.802 -261.744)" fill="#fff"/><path d="M589.161,300.862a.268.268,0,0,1-.3.276h-7.1c-.092,0-.123.038-.092.115a4.086,4.086,0,0,0,.253.919,2.408,2.408,0,0,0,2.435,1.286,2.772,2.772,0,0,0,2.32-1.194.207.207,0,0,1,.367-.046l1.654,1.631a.318.318,0,0,1,.115.207.477.477,0,0,1-.092.184,5.01,5.01,0,0,1-1.953,1.459,6.53,6.53,0,0,1-2.619.517,5.963,5.963,0,0,1-3.342-.9,4.972,4.972,0,0,1-1.964-2.5,7.877,7.877,0,0,1-.483-3.009,6.612,6.612,0,0,1,.345-2.228,5.049,5.049,0,0,1,1.849-2.6,5.17,5.17,0,0,1,3.135-.965,5.106,5.106,0,0,1,3.687,1.332,5.829,5.829,0,0,1,1.688,3.56A9.884,9.884,0,0,1,589.161,300.862Zm-7.35-2.687a5.431,5.431,0,0,0-.161.735.1.1,0,0,0,.115.115h3.974c.092,0,.122-.038.092-.115q-.116-.666-.115-.643a1.984,1.984,0,0,0-.723-1.068,2.1,2.1,0,0,0-1.275-.379A1.841,1.841,0,0,0,581.811,298.175Z" transform="translate(-531.764 -261.698)" fill="#fff"/><path d="M616.753,305.847a4.1,4.1,0,0,1-1.78-1.218,2.735,2.735,0,0,1-.631-1.768v-.23a.275.275,0,0,1,.276-.275h2.55a.275.275,0,0,1,.276.275v.023a1.019,1.019,0,0,0,.562.862,2.6,2.6,0,0,0,1.413.356,2.3,2.3,0,0,0,1.263-.31.9.9,0,0,0,.483-.769.662.662,0,0,0-.413-.62,7.032,7.032,0,0,0-1.355-.437,13.524,13.524,0,0,1-1.7-.528,7.281,7.281,0,0,1-2.343-1.24,2.607,2.607,0,0,1-.873-2.113,3.207,3.207,0,0,1,1.321-2.7,5.661,5.661,0,0,1,3.5-1,6.509,6.509,0,0,1,2.573.471,3.956,3.956,0,0,1,1.711,1.321,3.234,3.234,0,0,1,.609,1.929.276.276,0,0,1-.276.276h-2.458a.275.275,0,0,1-.276-.276,1,1,0,0,0-.517-.85,2.425,2.425,0,0,0-1.367-.345,2.482,2.482,0,0,0-1.24.276.842.842,0,0,0-.482.758.735.735,0,0,0,.471.689,8.014,8.014,0,0,0,1.573.483q.253.069.574.149t.689.195a7.468,7.468,0,0,1,2.573,1.241,2.665,2.665,0,0,1,.942,2.205,3.07,3.07,0,0,1-1.344,2.653,6.14,6.14,0,0,1-3.618.953A7.56,7.56,0,0,1,616.753,305.847Z" transform="translate(-555.727 -261.79)" fill="#fff"/><path d="M650.116,305.847a4.092,4.092,0,0,1-1.78-1.218,2.733,2.733,0,0,1-.632-1.768v-.23a.275.275,0,0,1,.276-.275h2.549a.275.275,0,0,1,.276.275v.023a1.019,1.019,0,0,0,.563.862,2.594,2.594,0,0,0,1.412.356,2.3,2.3,0,0,0,1.263-.31.9.9,0,0,0,.483-.769.662.662,0,0,0-.414-.62,7.025,7.025,0,0,0-1.355-.437,13.531,13.531,0,0,1-1.7-.528,7.283,7.283,0,0,1-2.343-1.24,2.607,2.607,0,0,1-.873-2.113,3.208,3.208,0,0,1,1.321-2.7,5.661,5.661,0,0,1,3.5-1,6.513,6.513,0,0,1,2.573.471,3.956,3.956,0,0,1,1.711,1.321,3.236,3.236,0,0,1,.609,1.929.275.275,0,0,1-.276.276h-2.458a.275.275,0,0,1-.276-.276,1,1,0,0,0-.517-.85,2.425,2.425,0,0,0-1.367-.345,2.481,2.481,0,0,0-1.24.276.843.843,0,0,0-.483.758.734.734,0,0,0,.471.689,8.015,8.015,0,0,0,1.573.483q.252.069.574.149t.689.195a7.473,7.473,0,0,1,2.573,1.241,2.665,2.665,0,0,1,.942,2.205,3.07,3.07,0,0,1-1.343,2.653,6.14,6.14,0,0,1-3.618.953A7.558,7.558,0,0,1,650.116,305.847Z" transform="translate(-577.949 -261.79)" fill="#fff"/><path d="M684.028,305.25a5.05,5.05,0,0,1-1.884-2.756,8.175,8.175,0,0,1-.322-2.343,8.522,8.522,0,0,1,.322-2.435,4.935,4.935,0,0,1,1.907-2.665,5.621,5.621,0,0,1,3.308-.965,5.383,5.383,0,0,1,3.216.953,5.087,5.087,0,0,1,1.884,2.653,7.877,7.877,0,0,1,.367,2.412,8.1,8.1,0,0,1-.321,2.32,5.133,5.133,0,0,1-1.872,2.814,5.345,5.345,0,0,1-3.3,1.022A5.439,5.439,0,0,1,684.028,305.25Zm4.594-2.228a2.555,2.555,0,0,0,.758-1.263,6.623,6.623,0,0,0,.184-1.608,6.219,6.219,0,0,0-.184-1.631,2.553,2.553,0,0,0-.781-1.217,2.13,2.13,0,0,0-2.584,0,2.452,2.452,0,0,0-.746,1.217,5.453,5.453,0,0,0-.184,1.631,6.26,6.26,0,0,0,.161,1.608,2.512,2.512,0,0,0,.77,1.263,1.966,1.966,0,0,0,1.321.459A1.892,1.892,0,0,0,688.622,303.022Z" transform="translate(-600.675 -261.744)" fill="#fff"/><path d="M727.533,294.477a.285.285,0,0,1,.138.344l-.482,2.619q-.024.276-.322.161a2.546,2.546,0,0,0-.8-.115,3.787,3.787,0,0,0-.506.046,2.258,2.258,0,0,0-1.4.608,1.877,1.877,0,0,0-.574,1.436v6.271a.275.275,0,0,1-.276.276H720.62a.274.274,0,0,1-.276-.276V294.591a.274.274,0,0,1,.276-.276h2.687a.275.275,0,0,1,.276.276v.873a.092.092,0,0,0,.046.092.045.045,0,0,0,.069-.023,2.918,2.918,0,0,1,2.526-1.378A2.333,2.333,0,0,1,727.533,294.477Z" transform="translate(-626.332 -261.79)" fill="#fff"/><path d="M746.693,305.847a4.094,4.094,0,0,1-1.78-1.218,2.733,2.733,0,0,1-.632-1.768v-.23a.275.275,0,0,1,.276-.275h2.549a.275.275,0,0,1,.276.275v.023a1.019,1.019,0,0,0,.563.862,2.594,2.594,0,0,0,1.413.356,2.305,2.305,0,0,0,1.264-.31.9.9,0,0,0,.482-.769.662.662,0,0,0-.413-.62,7.037,7.037,0,0,0-1.355-.437,13.539,13.539,0,0,1-1.7-.528,7.282,7.282,0,0,1-2.342-1.24,2.606,2.606,0,0,1-.873-2.113,3.207,3.207,0,0,1,1.321-2.7,5.661,5.661,0,0,1,3.5-1,6.511,6.511,0,0,1,2.573.471,3.956,3.956,0,0,1,1.711,1.321,3.233,3.233,0,0,1,.609,1.929.275.275,0,0,1-.276.276H751.4a.275.275,0,0,1-.275-.276,1,1,0,0,0-.517-.85,2.425,2.425,0,0,0-1.366-.345,2.482,2.482,0,0,0-1.241.276.843.843,0,0,0-.483.758.734.734,0,0,0,.471.689,8,8,0,0,0,1.573.483q.252.069.574.149t.689.195a7.47,7.47,0,0,1,2.573,1.241,2.665,2.665,0,0,1,.942,2.205A3.07,3.07,0,0,1,753,305.33a6.14,6.14,0,0,1-3.618.953A7.558,7.558,0,0,1,746.693,305.847Z" transform="translate(-642.276 -261.79)" fill="#fff"/><path d="M441.216,380.386a.264.264,0,0,1-.08-.2V364.664a.274.274,0,0,1,.275-.276H444.1a.275.275,0,0,1,.276.276v15.528a.275.275,0,0,1-.276.276h-2.687A.263.263,0,0,1,441.216,380.386Z" transform="translate(-440.359 -308.571)" fill="#fff"/><path d="M467.038,377.758a4.129,4.129,0,0,1,1.125,3.055v7.534a.275.275,0,0,1-.276.276H465.2a.275.275,0,0,1-.276-.276v-6.868a2.148,2.148,0,0,0-.517-1.493,1.913,1.913,0,0,0-2.734,0,2.147,2.147,0,0,0-.517,1.493v6.868a.275.275,0,0,1-.276.276h-2.687a.274.274,0,0,1-.276-.276V377.091a.274.274,0,0,1,.276-.275h2.687a.274.274,0,0,1,.276.275v.8a.091.091,0,0,0,.046.092.045.045,0,0,0,.069-.023,3.21,3.21,0,0,1,2.8-1.332A4.007,4.007,0,0,1,467.038,377.758Z" transform="translate(-451.538 -316.726)" fill="#fff"/><path d="M496.066,387.887a5.011,5.011,0,0,1-1.918-2.527,8.425,8.425,0,0,1-.391-2.711,8.134,8.134,0,0,1,.391-2.664,4.768,4.768,0,0,1,1.906-2.458,5.656,5.656,0,0,1,3.193-.9,5.719,5.719,0,0,1,3.227.919,4.405,4.405,0,0,1,1.849,2.32,2.914,2.914,0,0,1,.184.827v.046a.244.244,0,0,1-.229.252l-2.641.391h-.046a.276.276,0,0,1-.276-.23l-.069-.368a1.75,1.75,0,0,0-.712-.987,2.208,2.208,0,0,0-1.309-.391,2.052,2.052,0,0,0-1.24.368,1.946,1.946,0,0,0-.712,1.01,5.637,5.637,0,0,0-.253,1.884,6.155,6.155,0,0,0,.23,1.883,2.043,2.043,0,0,0,.724,1.08,2.014,2.014,0,0,0,1.252.39,2.124,2.124,0,0,0,1.252-.379,1.939,1.939,0,0,0,.747-1.045.323.323,0,0,0,.023-.138.1.1,0,0,0,.023-.069q.023-.275.322-.23l2.641.414a.243.243,0,0,1,.229.252,3.206,3.206,0,0,1-.138.689,4.284,4.284,0,0,1-1.872,2.412,5.9,5.9,0,0,1-3.2.873A5.5,5.5,0,0,1,496.066,387.887Z" transform="translate(-475.409 -316.726)" fill="#fff"/><path d="M529.768,405.058a1.888,1.888,0,1,1,1.3.517A1.762,1.762,0,0,1,529.768,405.058Z" transform="translate(-499.05 -333.586)" fill="#fff"/></g></g></svg>