<svg xmlns="http://www.w3.org/2000/svg" width="60" height="60" viewBox="0 0 60 60"><g transform="translate(0 0)" fill="none"><path d="M30,0A30,30,0,1,1,0,30,30,30,0,0,1,30,0Z" stroke="none"/><path d="M 30.00000190734863 2.000003814697266 C 26.21914291381836 2.000003814697266 22.55244064331055 2.740043640136719 19.10175323486328 4.199562072753906 C 15.76777267456055 5.609710693359375 12.77313232421875 7.628890991210938 10.20101165771484 10.20101165771484 C 7.628890991210938 12.77313232421875 5.609710693359375 15.76777267456055 4.199562072753906 19.10175323486328 C 2.740043640136719 22.55244064331055 2.000003814697266 26.21914291381836 2.000003814697266 30.00000190734863 C 2.000003814697266 33.78086090087891 2.740043640136719 37.44756317138672 4.199562072753906 40.89825439453125 C 5.609710693359375 44.23223114013672 7.628890991210938 47.22687149047852 10.20101165771484 49.79899215698242 C 12.77313232421875 52.37111282348633 15.76777267456055 54.39029312133789 19.10175323486328 55.80044174194336 C 22.55244064331055 57.25996017456055 26.21914291381836 58 30.00000190734863 58 C 33.78086090087891 58 37.44756317138672 57.25996017456055 40.89825439453125 55.80044174194336 C 44.23223114013672 54.39029312133789 47.22687149047852 52.37111282348633 49.79899215698242 49.79899215698242 C 52.37111282348633 47.22687149047852 54.39029312133789 44.23223114013672 55.80044174194336 40.89825439453125 C 57.25996017456055 37.44756317138672 58 33.78086090087891 58 30.00000190734863 C 58 26.21914291381836 57.25996017456055 22.55244064331055 55.80044174194336 19.10175323486328 C 54.39029312133789 15.76777267456055 52.37111282348633 12.77313232421875 49.79899215698242 10.20101165771484 C 47.22687149047852 7.628890991210938 44.23223114013672 5.609710693359375 40.89825439453125 4.199562072753906 C 37.44756317138672 2.740043640136719 33.78086090087891 2.000003814697266 30.00000190734863 2.000003814697266 M 30.00000190734863 3.814697265625e-06 C 46.56854248046875 3.814697265625e-06 60 13.43146133422852 60 30.00000190734863 C 60 46.56854248046875 46.56854248046875 60 30.00000190734863 60 C 13.43146133422852 60 3.814697265625e-06 46.56854248046875 3.814697265625e-06 30.00000190734863 C 3.814697265625e-06 13.43146133422852 13.43146133422852 3.814697265625e-06 30.00000190734863 3.814697265625e-06 Z" stroke="none" fill="#fff"/></g><path d="M14.5,4.83a4.787,4.787,0,0,1,3.782,3.782M14.5,1a8.617,8.617,0,0,1,7.612,7.6m-.957,7.641v2.872a1.915,1.915,0,0,1-2.087,1.915A18.949,18.949,0,0,1,10.8,18.091a18.671,18.671,0,0,1-5.745-5.745,18.949,18.949,0,0,1-2.939-8.3A1.915,1.915,0,0,1,4.025,1.957H6.9A1.915,1.915,0,0,1,8.812,3.6a12.294,12.294,0,0,0,.67,2.691,1.915,1.915,0,0,1-.431,2.02L7.836,9.531a15.32,15.32,0,0,0,5.745,5.745L14.8,14.06a1.915,1.915,0,0,1,2.02-.431,12.294,12.294,0,0,0,2.691.67,1.915,1.915,0,0,1,1.647,1.944Z" transform="translate(18.074 18.3)" fill="none" stroke="#fff" stroke-linecap="round" stroke-linejoin="round" stroke-width="2"/></svg>