<svg xmlns="http://www.w3.org/2000/svg" xmlns:xlink="http://www.w3.org/1999/xlink" width="483.404" height="483.404" viewBox="0 0 483.404 483.404"><defs><filter id="a" x="0" y="0" width="483.404" height="483.404" filterUnits="userSpaceOnUse"><feOffset dx="5" dy="20" input="SourceAlpha"/><feGaussianBlur stdDeviation="20" result="b"/><feFlood flood-color="#6f843e" flood-opacity="0.2"/><feComposite operator="in" in2="b"/><feComposite in="SourceGraphic"/></filter></defs><g transform="matrix(1, 0, 0, 1, 0, 0)" filter="url(#a)"><path d="M133.853,267.707a134.841,134.841,0,0,1-26.976-2.719,133.118,133.118,0,0,1-47.862-20.141,134.244,134.244,0,0,1-48.5-58.892,133.179,133.179,0,0,1-7.8-25.126,135.159,135.159,0,0,1,0-53.952A133.121,133.121,0,0,1,22.86,59.015a134.242,134.242,0,0,1,58.891-48.5,133.175,133.175,0,0,1,25.126-7.8,135.158,135.158,0,0,1,53.952,0A133.122,133.122,0,0,1,208.691,22.86a134.245,134.245,0,0,1,48.5,58.892,133.18,133.18,0,0,1,7.8,25.126,135.159,135.159,0,0,1,0,53.952,133.121,133.121,0,0,1-20.141,47.863,134.245,134.245,0,0,1-58.892,48.5,133.18,133.18,0,0,1-25.126,7.8A134.842,134.842,0,0,1,133.853,267.707Zm0-262.206A128.353,128.353,0,1,0,262.205,133.854,128.5,128.5,0,0,0,133.853,5.5Zm0,253.955A125.637,125.637,0,0,1,84.963,18.121a125.636,125.636,0,0,1,97.78,231.466A124.814,124.814,0,0,1,133.853,259.456ZM161.6,144.172l-27.292,41.939,28.981,40.958-.132-8.41-.185-12.373c.012,0,.992.025,2.581.025,5.574,0,19.2-.307,25.353-3.153,3.762-1.741,12.45-17.6,20.115-31.583,3.2-5.847,6.23-11.369,8.549-15.209-4.184,6.586-14.6,9.787-31.827,9.787a236.888,236.888,0,0,1-25.635-1.653l-.291-11.739-.217-8.591Zm-43.772,63.18c2.065,0,3.683.016,5.093.051V163.408H79.954c-.969,1.808-1.8,3.431-2.542,4.962-4.635,9.556-6.623,17.038-6.078,22.873a14.057,14.057,0,0,0,7.88,11.724c5.261,2.832,14.512,4.314,20.932,4.314,2.448.07,5.118.1,8.4.1,1.683,0,3.339-.008,4.8-.016C114.913,207.36,116.392,207.352,117.833,207.352ZM86.171,109.3l-49.958,4.614,7.349,4.1,10.809,6.025c-.1.17-10.495,17.233-11.263,25.753-.373,4.132,9.02,19.592,17.308,33.231C63.874,188.71,67.138,194.082,69.3,198a16.928,16.928,0,0,1-1.447-9.958,45.431,45.431,0,0,1,3.81-12.635c3.672-8.308,9.992-18.524,19.321-31.231l10.316,5.609,7.541,4.113Zm114.73-4.067-15.731,9.082L162.8,127.225l21.486,37.215c1.932-.06,3.806-.152,5.57-.275,10.592-.768,18.065-2.789,22.846-6.18a14.061,14.061,0,0,0,6.212-12.686c-.146-5.241-2.263-11.647-6.663-20.16l-.011-.019c-.019-.032-.039-.065-.058-.1-2.145-3.97-4.379-7.8-6.54-11.5C203.9,110.529,202.252,107.711,200.9,105.231ZM106.721,51.219a14.8,14.8,0,0,0-7.877,2.412c-4.475,2.75-8.962,7.785-14.121,15.847-.008.014-.017.027-.027.041a.615.615,0,0,0-.049.083c-2.384,3.869-4.6,7.741-6.734,11.487-1.7,2.974-3.3,5.781-4.761,8.172l17.079,9.861,21.023,12.133L129.064,80.4l3.668-6.355c-1.038-1.675-2.054-3.251-3.02-4.683C121.436,57.154,113.916,51.219,106.721,51.219Zm1.375-3.7h0a16.937,16.937,0,0,1,9.35,3.728,45.439,45.439,0,0,1,9.04,9.618c5.361,7.336,11.048,17.918,17.386,32.349l-10.015,6.126-7.333,4.475,49.965,2.665,20.985-45.574-7.226,4.321-10.623,6.348c-.1-.175-9.671-17.71-16.662-22.626-1.845-1.3-8.127-1.9-19.77-1.9-5.2,0-10.683.112-16.795.248l-.926.021c-5.255.117-10.219.228-14.279.228C110.037,47.55,109.024,47.541,108.1,47.523Z" transform="matrix(0.88, -0.47, 0.47, 0.88, 55.68, 166.36)" fill="#6f843e" stroke="rgba(0,0,0,0)" stroke-width="1"/></g></svg>