<svg xmlns="http://www.w3.org/2000/svg" xmlns:xlink="http://www.w3.org/1999/xlink" width="137.645" height="188.834" viewBox="0 0 137.645 188.834"><defs><filter id="a" x="0.107" y="0" width="137.431" height="146.898" filterUnits="userSpaceOnUse"><feOffset dy="5" input="SourceAlpha"/><feGaussianBlur stdDeviation="5" result="b"/><feFlood flood-opacity="0.302"/><feComposite operator="in" in2="b"/><feComposite in="SourceGraphic"/></filter><filter id="c" x="0" y="119.489" width="137.645" height="69.345" filterUnits="userSpaceOnUse"><feOffset dy="5" input="SourceAlpha"/><feGaussianBlur stdDeviation="5" result="d"/><feFlood flood-opacity="0.302"/><feComposite operator="in" in2="d"/><feComposite in="SourceGraphic"/></filter></defs><g transform="translate(-454.38 -96.245)"><g transform="translate(471.866 111.364)"><path d="M502.655,218.086c-1.606-2.54-3.238-5.059-4.861-7.586-.842-.789-1.495-.537-2.135.314-.752,1-1.582,1.953-2.693,3.3.128-1.883.153-3.3.347-4.7a1.749,1.749,0,0,0-1.214-2.143c-1.049-.446-2.032-1.065-3.391-1.792,1.193-.438,2.028-.739,2.862-1.041q-4.305-6.1-8.619-12.187c-2.172,1.181-.273,2.606-.24,3.919.3.607.591,1.21.888,1.817-.083.095-.169.186-.252.277-1.028-.541-2.057-1.086-3.254-1.718-.289,1.094-.525,1.974-.863,3.271-.194-.591-.368-1.181-.541-1.755-.087-.285-.178-.57-.268-.842s-.194-.549-.3-.809V208.7l.43-.1c.058-.017.12-.029.182-.045.227-.054.458-.107.7-.161q.254-.062.52-.124c-.091.219-.19.43-.289.636-.446.933-.933,1.776-1.239,2.585-.017.045-.033.087-.049.132s-.033.091-.045.136a.446.446,0,0,0-.033.116c-.025.07-.045.14-.062.206s-.037.157-.054.235-.025.149-.033.223a.052.052,0,0,0,0,.025c-.012.087-.017.173-.021.26a.353.353,0,0,0,0,.066c0,.041,0,.087,0,.128v.008a1.351,1.351,0,0,0,.017.223,1.638,1.638,0,0,0,.029.244c.012.083.029.161.05.244s.037.157.062.235c.029.1.058.206.1.314.033.091.066.186.1.277.07.19.153.38.239.574.343.772.781,1.6,1.152,2.548-.677-.376-1.239-.686-1.747-.971v10.424l.483-.074c6.409-1.037,12.8-2.193,19.2-3.3.343-.058.69-.074,1.037-.112q3.153-.743,6.3-1.491C504.315,220.8,503.51,219.432,502.655,218.086Zm-25.625-33.6a8.607,8.607,0,0,1,.31,1.363h0A8.181,8.181,0,0,0,477.03,184.49Z" transform="translate(-476.357 -157.295)" fill="#0d1019"/><path d="M541.206,184.605q-3.7-9.168-7.417-18.328c-.413-1.024-.768-2.069-1.152-3.106q-1.239-2.874-2.478-5.745-3.593-8.251-7.186-16.5c-3.035-3.168-6.1-6.31-9.1-9.511-2.664-2.829-5.394-3.052-7.826-6.075-.975-1.21-1.239-2.994-1.821-4.518-.454-.194-.9-.384-1.355-.578-2.87-.45-2.87-.45-4.84,3.411a17.869,17.869,0,0,0-.917-3.944c-.029-.058-.054-.116-.087-.169a1.777,1.777,0,0,0-.107-.194,2.678,2.678,0,0,0-.149-.227,1.475,1.475,0,0,0-.1-.136,1.087,1.087,0,0,0-.087-.107.137.137,0,0,0-.025-.025c-.066-.074-.136-.145-.211-.215H484.483a4.8,4.8,0,0,0-4.8,4.8v2.932s.012,0,.021-.008c.074-.025.149-.054.219-.083s.132-.05.194-.078.136-.062.2-.095c.078-.037.153-.078.227-.12.033-.017.066-.037.1-.058.07-.041.14-.087.206-.132.041-.029.087-.058.128-.091a4.077,4.077,0,0,0,.326-.273,3.249,3.249,0,0,0,.359-.4,2.105,2.105,0,0,0,.14-.194,3.491,3.491,0,0,0,.351-.636c.029-.066.058-.136.083-.211a3.336,3.336,0,0,0,.132-.421c.021-.087.041-.173.062-.264a5.679,5.679,0,0,0,.112-.921c.008-.136.012-.273.012-.413V121.8c.6.888,1.02,2.172,1.854,2.548.706.318,1.887-.4,3.192-.76-.491,1.326-1.268,2.49-1.26,3.651,0,1.111.826-.347,1.487,1.239a6.189,6.189,0,0,0-7.479.714,4.127,4.127,0,0,0,.467-1.45.8.8,0,0,0-.008-.1c0-.021-.008-.045-.012-.066s-.008-.029-.012-.041a.39.39,0,0,0-.111-.157.531.531,0,0,0-.1-.058.357.357,0,0,0-.07-.029l-.074-.025a1.151,1.151,0,0,0-.136-.025,3.608,3.608,0,0,0-.4-.041l-.207-.012v7.2q1.258,1.821,2.532,3.634c.925,1.313,1.949,2.556,2.887,3.857a15.185,15.185,0,0,1,.925,1.64c.1.095.2.186.306.285-.008-.017-.012-.029-.021-.045.388-.1.776-.211,1.214-.33a19.4,19.4,0,0,0,2.606,2.949,19.83,19.83,0,0,0,3.609,1.776c-.71.582-2.284.347-1.673,1.941.541.884,1.02,1.813,1.635,2.639,1.053,1.408,2.152,2.788,3.312,4.1a26.424,26.424,0,0,0,2.309,2.086c.347.335.7.669,1.045,1l1.037-.149c.376-.165.756-.335,1.132-.5.215-.772.43-1.545.826-2.973,1.284,3.927,3.729,5.038,7.211,4.369-.979.867-1.962,1.734-3,2.651.756,1.35,1.346,2.4,2.048,3.655-1.966-.855-3.75-1.631-5.538-2.408a21.488,21.488,0,0,0,1.685,3.345c3.275,4.431,6.637,8.8,9.986,13.178.991,1.293,2.069,2.519,3.056,3.812a4.66,4.66,0,0,1,.462,1.231c.2.1.4.194.595.293.413.2.826.409,1.239.615a14.681,14.681,0,0,0,9.738,2.015c3.337-.363,6.641-1.065,9.961-1.619C541.866,186.625,541.61,185.613,541.206,184.605Zm-45.151-44.977c.785-3.031.318-5.228-3.362-5.778,2.408-1.1,4.8-1.982,2.738-5.476,1.85.483,2.432,3.4,4.084,1.511.867,2.362,1.722,4.7,2.651,7.223C499.028,135,497.942,137.918,496.055,139.628Zm16.788,12.228c-.235-1.392-.132-2.99-.805-4.126-.632-1.057-2.086-1.623-3.345-2.527,3.337-.714,2.589-2.837,1.384-5.1.149-.045.293-.087.442-.128.384.417.785.822,1.148,1.255.409.487.789,1,1.235,1.578.813-.363,1.586-.706,2.837-1.264a7.12,7.12,0,0,0,2.172,7.764c-1.227-.111-2.515-.615-3.242-.182C513.9,149.584,513.676,150.943,512.842,151.856Zm13.414,25.278c.669,1,1.189,2.1,1.776,3.155l-.293.256a8.406,8.406,0,0,1-1.586-.69c-2.086-1.462-3.919-1.264-5.575.69a5.951,5.951,0,0,1-1.148.681c1.16-4.06-1.2-5.765-4.316-7.248,4.155.578,5.922-1.214,5.827-5.4,1.429,4.08,3.96,4.811,7.545,2.841.025.194.054.384.083.578-.731,1.049-1.412,2.143-2.214,3.139A1.435,1.435,0,0,0,526.256,177.134Z" transform="translate(-477.912 -118.64)" fill="#0e1019"/><path d="M667.863,333.73c-4.658,1.991-9.337,4.072-13.723,6.071l-.186-.582c-.306-.962-.512-1.958-.764-2.94,2.114-.409,4.237-.8,6.343-1.235Q663.678,334.182,667.863,333.73Z" transform="translate(-579.767 -244.902)" fill="#5d060e"/><path d="M699.077,281.255v6.971q-6.393-6.771-12.794-13.529c-.516-.549-1-1.127-1.5-1.689,4.167-1.375,6.376-.8,9.176,2.441,1.342,1.549,2.705,3.085,3.944,4.712A4.34,4.34,0,0,0,699.077,281.255Z" transform="translate(-598.311 -208.848)" fill="#fdfefd"/><path d="M556.582,352.568c-.264.132-.442.219-.52.256l-.049.021s-.017-.008-.05-.021c-.909-.45-15.074-7.417-30.573-14.26.636-.1,1.276-.2,1.912-.285.215-.029.429-.058.644-.083s.409-.05.615-.07q.341-.037.681-.062c3.651-.285,7.31-.471,10.965-.694a14.548,14.548,0,0,1,2.891,1.747q5.117,4.987,10.143,10.06Q554.914,350.868,556.582,352.568Z" transform="translate(-504.745 -247.039)" fill="#5d060e"/><path d="M713.729,121.288q-1.449-1.121-2.9-2.238A4.787,4.787,0,0,1,713.729,121.288Z" transform="translate(-613.603 -118.881)" fill="#bb071d"/><path d="M706.88,142.265c.355.372.694.107,1.041-.157C707.574,142.157,707.227,142.211,706.88,142.265Zm2.123-.376c-.388-.314-.739-.045-1.082.219l1.14-.173Zm.058.045q1.493,1.2,2.99,2.4V141.48C711.051,141.633,710.056,141.781,709.06,141.934Z" transform="translate(-611.284 -132.048)" fill="#ba081f"/><path d="M663.2,128.729c-.45.107-.892.223-1.342.318-4.126.871-8.255-.814-12.381.058-.235-.021-.471-.041-.706-.058-3.977-3.052-8.041-3.428-11.89-6.632a39.767,39.767,0,0,1-3.828-3.775h18.3c.359.417.723.83,1.086,1.243s.731.826,1.1,1.239q1.1,1.233,2.218,2.449C657.841,125.826,660.026,128.01,663.2,128.729Z" transform="translate(-567.944 -118.64)" fill="#d3c1b4"/><path d="M694.728,123.443v4.629c-1,.153-1.995.3-2.99.454l-1.14.173c-.347.05-.694.1-1.041.157-.116-.045-.231-.087-.343-.128-3.172-.719-5.356-2.9-7.442-5.158q-1.121-1.214-2.218-2.449c-.368-.409-.735-.822-1.1-1.239s-.727-.826-1.086-1.243h12.555a4.737,4.737,0,0,1,1.264.169q1.449,1.121,2.9,2.238A4.752,4.752,0,0,1,694.728,123.443Z" transform="translate(-593.961 -118.64)" fill="#faf8fa"/><path d="M571.42,118.64a75.182,75.182,0,0,1-21.223,1.049c-.434-.351-.863-.7-1.3-1.049Z" transform="translate(-518.546 -118.64)" fill="#8a0c17"/><path d="M584.558,347.9c-3.4,1.627-5.86,2.829-6.913,3.345q-1.666-1.7-3.341-3.391-5.03-5.073-10.143-10.06a14.55,14.55,0,0,0-2.891-1.747c.252-.078.5-.157.752-.231l4.563-.211.322-.062c.946-.074,1.887-.153,2.833-.227.124-.029.244-.054.363-.083,1.276-.037,2.548-.074,3.824-.116.421.529.834,1.066,1.268,1.582Q579.873,342.308,584.558,347.9Z" transform="translate(-525.808 -245.718)" fill="#8a0c17"/><path d="M609.641,344.089c-2.639,1.235-5.038,2.371-7.091,3.349q-4.671-5.6-9.362-11.2c-.434-.516-.847-1.053-1.268-1.582a.8.8,0,0,0,.029-.3q2.094-.019,4.183-.029c.363.012.731.025,1.094.033q3.364.774,6.727,1.553c.458.24.917.483,1.375.727a8.982,8.982,0,0,0,.785,2.432c.574.842,1.156,1.685,1.747,2.519.293.417.591.834.888,1.247S609.344,343.676,609.641,344.089Z" transform="translate(-543.8 -245.255)" fill="#bb071d"/><path d="M637.234,343.3c-3.015,1.371-5.893,2.7-8.532,3.936-.3-.413-.595-.83-.892-1.247s-.595-.83-.888-1.247c-.591-.834-1.173-1.677-1.747-2.519a8.982,8.982,0,0,1-.785-2.432,19.675,19.675,0,0,0,11.584-.1l.31.087c.252.983.458,1.978.764,2.94Z" transform="translate(-562.86 -248.401)" fill="#8a0c17"/><path d="M534.86,120.825c-.454-.194-.9-.384-1.355-.578-.545-.537-1.09-1.07-1.635-1.606h2.66c.025.062.05.128.078.2.083.2.182.43.289.686A3.323,3.323,0,0,1,534.86,120.825Z" transform="translate(-508.549 -118.64)" fill="#f1f0f1"/><path d="M495.65,313.024c-4.357-1.9-8.759-3.758-12.951-5.426a4.8,4.8,0,0,1-3.019-4.456V296.03a16.519,16.519,0,0,1,2.755,2.007,125.577,125.577,0,0,1,9.825,10.064A35.723,35.723,0,0,1,495.65,313.024Z" transform="translate(-477.912 -222.772)" fill="#d3c1b4"/><path d="M477.03,184.49a8.181,8.181,0,0,1,.314,1.363h0A8.607,8.607,0,0,0,477.03,184.49Z" transform="translate(-476.357 -157.295)" fill="#122047"/><path d="M519.272,208.516c-3.692-2.036-7.537-3.362-11.844-2.536l-.727-.087c-.83-1.363-1.635-2.734-2.49-4.08-1.606-2.54-3.238-5.059-4.861-7.586.128-.029.252-.062.376-.091q1.8.966,3.6,1.941l.26-.285c-.723-1.421-1.445-2.837-2.168-4.266.71-.487,1.3-.892,2.276-1.561a11.2,11.2,0,0,1-7.1-6.314,13.221,13.221,0,0,0-.809,2c-.306.768-.7,1.507-1.049,2.255l-1.607.26q-4.305-6.1-8.619-12.187c.624-.743,1.243-1.491,2.04-2.445h-4.105a15.942,15.942,0,0,0-1.313-2.515,1.947,1.947,0,0,0-.169-.2,2.121,2.121,0,0,0-.244-.227,1.678,1.678,0,0,0-.161-.128c-.037-.029-.074-.058-.111-.083q-.081-.062-.173-.124l-.194-.132c-.132-.087-.264-.173-.4-.264v-13.1q1.258,1.821,2.532,3.634c.925,1.313,1.949,2.556,2.887,3.857a15.186,15.186,0,0,1,.925,1.64c.1.1.2.186.306.285l0,0a9.962,9.962,0,0,0,.752,1.445c.182.293.376.578.582.851a24.44,24.44,0,0,0,2.54,2.775c.256.252.508.5.764.743.128.128.256.252.38.38s.256.252.38.38c.012,0,.223-.19.335-.289.541.884,1.02,1.813,1.635,2.639,1.053,1.408,2.152,2.788,3.312,4.105a26.42,26.42,0,0,0,2.309,2.086c.178,2.234,1.858,3.2,3.519,4.2l.074.058-.021.091c.2.306.409.611.611.917l.578.384a21.489,21.489,0,0,0,1.685,3.345c3.275,4.431,6.637,8.8,9.986,13.178.991,1.293,2.069,2.519,3.056,3.812A4.66,4.66,0,0,1,519.272,208.516Z" transform="translate(-477.912 -141.023)" fill="#122047"/><path d="M514.127,303.068c-.252.074-.5.153-.752.231-3.655.223-7.314.409-10.965.694q-.341.025-.681.062c-.206.021-.409.045-.615.07s-.43.054-.644.083c-.636.087-1.276.186-1.912.285-.438.066-.88.132-1.322.194l-.71-.1c-.3-.446-.591-.9-.876-1.367a35.722,35.722,0,0,0-3.391-4.923,125.582,125.582,0,0,0-9.825-10.064,16.519,16.519,0,0,0-2.755-2.007v-3.415l.483-.074c6.409-1.037,12.8-2.193,19.2-3.3.343-.058.69-.074,1.037-.112a10.849,10.849,0,0,0,.425,2.193c2.85,6.818,7.12,12.765,11.5,18.646C513,301.077,513.528,302.1,514.127,303.068Z" transform="translate(-477.912 -212.968)" fill="#aa978d"/><path d="M543.579,300.948c-.6-.968-1.128-1.987-1.8-2.9-4.378-5.882-8.648-11.829-11.5-18.648a10.805,10.805,0,0,1-.426-2.19l6.3-1.492.728.087a6.308,6.308,0,0,0,.419.771c5.278,7.188,10.542,14.387,15.875,21.534a11.354,11.354,0,0,0,2.34,1.84.779.779,0,0,1-.031.3l-3.822.115-.364.082-2.835.228a.3.3,0,0,0-.319.061Z" transform="translate(-507.364 -210.851)" fill="#d3c1b4"/><path d="M480.275,255.7c.343.772.781,1.6,1.152,2.548-.677-.376-1.239-.686-1.747-.971V253.59a1.351,1.351,0,0,0,.017.223,1.629,1.629,0,0,0,.029.244c.012.083.029.161.05.244s.037.157.062.235c.029.1.058.206.1.314.033.091.066.186.1.277C480.105,255.316,480.188,255.506,480.275,255.7Z" transform="translate(-477.912 -197.859)" fill="#a08f89"/><path d="M479.7,246.365a1.84,1.84,0,0,0-.021.26V242.5l.43-.1c.058-.017.12-.029.182-.045.227-.054.458-.107.7-.161l.52-.124c-.091.219-.19.43-.289.636-.446.933-.933,1.776-1.239,2.585-.017.045-.033.087-.05.132s-.033.091-.045.136a.447.447,0,0,0-.033.116c-.025.07-.045.14-.062.206s-.037.157-.054.235-.025.149-.033.223A.052.052,0,0,0,479.7,246.365Z" transform="translate(-477.912 -191.096)" fill="#a08f89"/><path d="M476.168,197.35c.306.124.669.206,1,.314a1.643,1.643,0,0,1,.834.483c.983,1.33,1.739,2.825,2.627,4.229a12.4,12.4,0,0,0,1.127,1.346c.3.607.591,1.21.888,1.817-.083.095-.169.186-.252.277-1.028-.541-2.057-1.086-3.254-1.718-.289,1.094-.525,1.974-.863,3.271-.194-.591-.368-1.181-.541-1.755-.087-.285-.178-.57-.268-.842s-.194-.549-.3-.809a.145.145,0,0,0-.017-.037,2.511,2.511,0,0,0-.1-.244c-.045-.107-.095-.211-.145-.314-.033-.078-.074-.157-.112-.231s-.087-.169-.128-.248a6.005,6.005,0,0,0-.673-.975c-.058-.07-.12-.14-.186-.206a4.039,4.039,0,0,0-.409-.384" transform="translate(-475.4 -164.844)" fill="#a08f89"/><path d="M508.173,232.43l1.6-.256a22.391,22.391,0,0,0,1.642,2.608c1.048,1.263,2.227,2.417,3.351,3.617l-.374.093c-.844-.788-1.5-.538-2.136.314-.753,1-1.583,1.95-2.693,3.3.129-1.886.152-3.306.345-4.7a1.751,1.751,0,0,0-1.212-2.144c-1.052-.445-2.032-1.063-3.393-1.792Z" transform="translate(-492.957 -185.287)" fill="#c5b6ad"/><path d="M482.848,198.11a12.4,12.4,0,0,1-1.127-1.346c-.888-1.4-1.644-2.9-2.627-4.229a1.642,1.642,0,0,0-.834-.483c-.33-.107-.694-.19-1-.314.074-1.317.145-2.631.219-3.948.161.029.326.054.491.083.1.194.194.392.289.591.289.591.566,1.189.884,1.759.07.128.14.252.219.376s.153.248.231.368c.268.4.942.529,1.429.781h4.105c-.8.954-1.417,1.7-2.04,2.445C480.915,195.372,482.815,196.8,482.848,198.11Z" transform="translate(-476.492 -159.233)" fill="#c5b6ad"/><path d="M608.934,307.127a19.688,19.688,0,0,1-11.584.1l-1.374-.728a10.212,10.212,0,0,0-1.107-2.309c-5.272-6.286-10.6-12.526-15.9-18.792a6.607,6.607,0,0,1-.646-1.178l.687.022a14.684,14.684,0,0,0,9.736,2.017c3.34-.365,6.643-1.066,9.963-1.62l1.04-.075c2.469,5.588,4.992,11.154,7.376,16.778A58.486,58.486,0,0,1,608.934,307.127Z" transform="translate(-535.82 -215.837)" fill="#d1bfb4"/><path d="M559.863,279a6.61,6.61,0,0,0,.646,1.178c5.3,6.266,10.625,12.506,15.9,18.792a10.216,10.216,0,0,1,1.107,2.309l-6.73-1.549-1.093-.033-4.183.026a11.361,11.361,0,0,1-2.34-1.84c-5.333-7.147-10.6-14.346-15.875-21.534a6.314,6.314,0,0,1-.419-.771c4.306-.829,8.151.5,11.844,2.534l.6.292.164.352.389.245Z" transform="translate(-517.356 -210.618)" fill="#fdfefd"/><path d="M617.119,249.666l-1.04.075c1.061-.813.806-1.827.4-2.833q-3.7-9.168-7.416-18.33c-.413-1.023-.771-2.069-1.153-3.1l3.271-.7a14.847,14.847,0,0,1,1.26,1.4c1.558,2.219,2.966,4.552,4.638,6.679,3.858,4.906,7.837,9.717,11.767,14.566a1.766,1.766,0,0,0,.058.2Z" transform="translate(-553.186 -180.942)" fill="#5d060e"/><path d="M557.468,140.321v0c-.029.2-.054.4-.078.6-3.035-3.168-6.1-6.31-9.1-9.511-2.664-2.829-5.393-3.052-7.826-6.075-.975-1.21-1.239-2.994-1.821-4.518a3.323,3.323,0,0,0,.037-1.3c-.107-.256-.206-.483-.289-.686-.029-.07-.054-.136-.078-.2h4.373c.434.347.863.7,1.3,1.049q2.571,3.11,5.142,6.228c.041.078.078.157.12.231.116.235.231.467.359.694,2.032,3.581,4.167,4.551,6.063,8.206.074.145.149.293.215.446.05.1.091.2.136.3.062.145.12.289.173.438.1.268.2.541.289.818.045.14.091.277.132.417.087.281.169.562.252.842C557.059,138.983,557.249,139.661,557.468,140.321Z" transform="translate(-512.33 -118.64)" fill="#131f47"/><path d="M578.1,251.527a8.465,8.465,0,0,1-1.587-.691c-2.086-1.461-3.92-1.264-5.573.69a5.9,5.9,0,0,1-1.151.683c1.161-4.06-1.2-5.766-4.315-7.248,4.153.579,5.923-1.217,5.828-5.4,1.429,4.08,3.958,4.814,7.544,2.843l.083.577c-.732,1.051-1.41,2.145-2.214,3.139a1.439,1.439,0,0,0-.1,2c.672,1,1.191,2.1,1.775,3.155Z" transform="translate(-528.278 -189.621)" fill="#c5b6ad"/><path d="M476.915,130.976c.078-.025.161-.045.24-.07.045-.017.091-.029.136-.045,0,0,.012,0,.021-.008.074-.025.149-.054.219-.083s.132-.05.194-.078.136-.062.2-.1c.078-.037.153-.078.227-.12.033-.017.066-.037.1-.058.07-.041.14-.087.206-.132.041-.029.087-.058.128-.091a4.075,4.075,0,0,0,.326-.273,3.249,3.249,0,0,0,.359-.4,2.112,2.112,0,0,0,.14-.194,3.492,3.492,0,0,0,.351-.636c.029-.066.058-.136.083-.211a3.335,3.335,0,0,0,.132-.421c.021-.087.041-.173.062-.264a5.686,5.686,0,0,0,.112-.921c.008-.132.012-.273.012-.413v-.186c.6.888,1.02,2.172,1.854,2.548.706.318,1.887-.4,3.192-.76-.491,1.326-1.268,2.49-1.26,3.651,0,1.111.826-.347,1.487,1.239a6.189,6.189,0,0,0-7.479.714,4.127,4.127,0,0,0,.467-1.45.8.8,0,0,0-.008-.1c0-.021-.008-.045-.012-.066s-.008-.029-.012-.041a.391.391,0,0,0-.111-.157.529.529,0,0,0-.1-.058.357.357,0,0,0-.07-.029l-.074-.025a1.152,1.152,0,0,0-.136-.025,3.6,3.6,0,0,0-.4-.041l-.206-.012c-.2-.008-.417-.025-.653-.054-.045,0-.091-.012-.136-.021a4.47,4.47,0,0,1-.648-.14c-.078-.025-.161-.05-.244-.078" transform="translate(-475.523 -123.125)" fill="#9a8c87"/><path d="M584.512,171.686q.038-.3.075-.606l.833-.046c.6,1.292,1.144,2.617,1.819,3.87,2.868,5.325,5.736,10.65,8.708,15.916a9.691,9.691,0,0,0,2.23,2.028l-.731.379-3.271.7c-.826-1.915-1.647-3.832-2.479-5.745Q588.108,179.932,584.512,171.686Z" transform="translate(-539.451 -149.396)" fill="#a08f89"/><path d="M514.549,153.465c.785-3.031.317-5.23-3.364-5.78,2.411-1.1,4.8-1.979,2.738-5.473,1.851.481,2.432,3.4,4.087,1.512l2.651,7.219C517.521,148.836,516.438,151.757,514.549,153.465Z" transform="translate(-496.407 -132.477)" fill="#a08f89"/><path d="M556.972,171.866a7.117,7.117,0,0,0,2.174,7.763c-1.227-.109-2.518-.615-3.243-.18-.765.46-.99,1.819-1.825,2.731-.236-1.395-.132-2.991-.806-4.125-.629-1.058-2.086-1.625-3.346-2.53,3.338-.713,2.593-2.839,1.386-5.1l.441-.128c.384.418.785.823,1.15,1.258.409.487.786,1,1.235,1.578Z" transform="translate(-519.148 -148.963)" fill="#9a8c87"/><path d="M532.3,216.8l.021-.091-.075-.056-2.474-3.191,1.034-.148,1.135-.5.822-2.974c1.288,3.927,3.732,5.037,7.214,4.369l-3,2.648,2.05,3.655-5.54-2.4-.577-.385Z" transform="translate(-507.318 -172.172)" fill="#c5b6ad"/><path d="M526.555,120.246c-2.87-.45-2.87-.45-4.84,3.411a17.871,17.871,0,0,0-.917-3.944c-.029-.058-.054-.116-.087-.169a1.782,1.782,0,0,0-.107-.194,2.685,2.685,0,0,0-.149-.227,1.476,1.476,0,0,0-.1-.136,1.083,1.083,0,0,0-.087-.107.137.137,0,0,0-.025-.025,1.719,1.719,0,0,0-.211-.215h4.89C525.465,119.177,526.01,119.71,526.555,120.246Z" transform="translate(-501.599 -118.64)" fill="#bbaea5"/><path d="M501.485,185.326c-.116.1-.33.3-.336.291-2-2.047-4.288-3.867-5.424-6.624l1.217-.331a19.135,19.135,0,0,0,2.6,2.945,19.822,19.822,0,0,0,3.612,1.779C502.445,183.967,500.872,183.735,501.485,185.326Z" transform="translate(-487.331 -153.875)" fill="#bbaea5"/><path d="M528.283,217.187l2.474,3.191c-1.661-.989-3.343-1.961-3.521-4.194Z" transform="translate(-505.829 -175.9)" fill="#131f47"/><path d="M533.412,217.034l-1.135.5Z" transform="translate(-508.788 -176.399)" fill="#131f47"/><path d="M577.157,283.129l-.164-.352,1.238.617-.687-.022,0,0Z" transform="translate(-535.037 -214.992)" fill="#122047"/><path d="M495.353,179.164l-.309-.289Z" transform="translate(-486.931 -153.999)" fill="#bbaea5"/><path d="M661.084,299.43c-2.209.9-4.456,1.846-6.711,2.812q-4.188.458-8.33,1.313c-2.106.438-4.229.826-6.343,1.235l-.31-.087a58.393,58.393,0,0,0-1.8-5.786c-2.383-5.625-4.906-11.192-7.376-16.779Q636.1,281.116,642,280.09c.665.727,1.326,1.462,2,2.181,4.613,4.877,9.135,9.85,13.888,14.586A23.618,23.618,0,0,0,661.084,299.43Z" transform="translate(-566.277 -213.415)" fill="#ac978b"/><path d="M683.709,289.124v.991a4.8,4.8,0,0,1-3.019,4.456q-1.456.582-2.94,1.189a23.621,23.621,0,0,1-3.2-2.573c-4.753-4.737-9.275-9.709-13.888-14.586-.677-.719-1.338-1.454-2-2.181-.016-.041-.029-.087-.041-.128a.5.5,0,0,1-.021-.074h0l10.081-2.379c.24.021.483.041.727.066.5.562.987,1.14,1.5,1.689Q677.314,282.36,683.709,289.124Z" transform="translate(-582.942 -209.746)" fill="#d3c1b4"/><path d="M669.562,227.228v22.656a4.34,4.34,0,0,1-1.177-1.094c-1.239-1.627-2.6-3.163-3.944-4.712-2.8-3.238-5.01-3.816-9.176-2.441-.244-.025-.487-.045-.727-.066a4.6,4.6,0,0,0-.615-1.569c-6.137-6.426-12.319-12.811-18.464-19.228a8.091,8.091,0,0,1-.958-1.611c4.1-.661,7.871-.458,10.688,3.291a61.075,61.075,0,0,0,5.274,5.868,3.041,3.041,0,0,0,2.057.88c3.2-.19,6.418-.446,9.6-.871C664.606,228,667.084,227.62,669.562,227.228Z" transform="translate(-568.795 -177.477)" fill="#b9081e"/><path d="M642.06,177.99v21.132c-2.478.392-4.956.772-7.442,1.1-3.184.425-6.4.681-9.6.871a3.041,3.041,0,0,1-2.057-.88,61.064,61.064,0,0,1-5.274-5.868c-2.817-3.75-6.587-3.952-10.688-3.291-.463-.008-.929-.021-1.4-.029q-1.332-1.45-2.66-2.907-7-7.669-13.988-15.35a20.724,20.724,0,0,1-1.3-1.78c2.048.281,4.3.111,6.087.95a30.751,30.751,0,0,1,6.372,4.555c2.325,1.949,4.423,4.175,6.736,6.141a3.58,3.58,0,0,0,2.453.661c1.433-.145,2.812-.743,4.245-.95,7.054-1.012,14.132-1.867,21.169-2.957C637.174,179.006,639.619,178.506,642.06,177.99Z" transform="translate(-541.293 -149.371)" fill="#fcfafb"/><path d="M722.862,128.353l-.646-.518Z" transform="translate(-620.286 -124.038)" fill="#ba081f"/><path d="M692.057,144.713v11.914c-4.312-2.837-8.623-5.67-12.877-8.586-2.247-1.536-4.245-3.424-6.36-5.15,4.126-.871,8.255.814,12.381-.058.45-.095.892-.211,1.342-.318.112.041.227.083.343.128.355.372.694.107,1.041-.157s.694-.533,1.082-.219l.058.045Q690.559,143.516,692.057,144.713Z" transform="translate(-591.29 -132.427)" fill="#8a0c17"/><path d="M628.47,153.184V157.6c-2.441.516-4.886,1.016-7.347,1.4-7.037,1.09-14.116,1.945-21.169,2.957-1.433.206-2.812.805-4.245.95a3.58,3.58,0,0,1-2.453-.661c-2.313-1.966-4.411-4.192-6.736-6.141a30.752,30.752,0,0,0-6.372-4.555c-1.784-.838-4.039-.669-6.087-.95-.128,0-.26.012-.388.017-.277.017-.553.033-.83.045h0c-.219-.661-.409-1.338-.6-2.011a21.919,21.919,0,0,0-.847-2.515c-.041-.095-.083-.186-.124-.277-.017-.041-.037-.083-.058-.124-.054-.12-.112-.231-.169-.347-1.9-3.655-4.031-4.625-6.062-8.206-.128-.227-.244-.458-.359-.694-.037-.074-.074-.153-.116-.231,1.243,1.227,2.515-.136,3.725,1.123,3.692,3.841,8,6.294,13.509,5.827,5.121-.438,10.25-.851,15.334-1.553,3.853-.529,7.644-1.495,11.46-2.267.235.017.471.037.706.058,2.114,1.726,4.113,3.614,6.36,5.15C619.847,147.514,624.159,150.347,628.47,153.184Z" transform="translate(-527.704 -128.983)" fill="#bb071d"/><path d="M601.213,129.047c-3.816.772-7.607,1.739-11.46,2.267-5.084.7-10.213,1.115-15.334,1.553-5.513.467-9.817-1.986-13.509-5.827-1.21-1.26-2.482.1-3.725-1.123q-2.577-3.116-5.146-6.228a75.182,75.182,0,0,0,21.223-1.049H585.5a39.767,39.767,0,0,0,3.828,3.775C593.173,125.619,597.236,126,601.213,129.047Z" transform="translate(-520.389 -118.64)" fill="#fdfcfc"/><path d="M581.782,335.484l.364-.082Z" transform="translate(-537.849 -245.884)" fill="#aa978d"/><path d="M574.145,336.18a.294.294,0,0,1,.319-.061Z" transform="translate(-533.366 -246.292)" fill="#aa978d"/><path d="M602.122,334.332l1.093.033Z" transform="translate(-549.789 -245.256)" fill="#d3c1b4"/><path d="M521.121,232.342c-1.124-1.2-2.3-2.354-3.351-3.617a22.391,22.391,0,0,1-1.642-2.608c.354-.751.743-1.488,1.05-2.258a13.292,13.292,0,0,1,.812-2,11.181,11.181,0,0,0,7.1,6.315l-2.276,1.564L524.983,234l-.26.285Z" transform="translate(-499.308 -179.23)" fill="#f1f0f1"/><path d="M482.032,191.864c-.487-.252-1.16-.38-1.429-.781-.078-.12-.157-.244-.231-.368s-.149-.248-.219-.376c-.318-.57-.595-1.169-.884-1.759-.095-.2-.19-.4-.289-.591.095.07.19.136.289.2.128.091.264.178.4.264l.194.132q.093.062.173.124c.037.025.074.054.112.083a1.215,1.215,0,0,1,.161.128,2.115,2.115,0,0,1,.244.227,1.948,1.948,0,0,1,.169.2A15.953,15.953,0,0,1,482.032,191.864Z" transform="translate(-477.501 -159.35)" fill="#0e1019"/><path d="M535.892,226.7l.61.919Z" transform="translate(-510.91 -182.071)" fill="#131f47"/><path d="M577.39,283.629l.389.244Z" transform="translate(-535.27 -215.492)" fill="#d1bfb4"/><path d="M622.146,219.514l1.4.026a8.186,8.186,0,0,0,.958,1.613c6.146,6.417,12.326,12.8,18.463,19.227a4.631,4.631,0,0,1,.614,1.569L633.5,244.327c-3.93-4.849-7.909-9.66-11.767-14.566-1.672-2.127-3.08-4.46-4.638-6.679a14.863,14.863,0,0,0-1.26-1.4l.731-.379Z" transform="translate(-557.835 -177.855)" fill="#8a0c17"/><path d="M605.052,191.029l-5.585,1.793a9.689,9.689,0,0,1-2.23-2.028c-2.972-5.266-5.84-10.591-8.708-15.916-.675-1.253-1.216-2.579-1.819-3.87l.389-.019a20.025,20.025,0,0,0,1.3,1.781q6.978,7.69,13.989,15.35Q603.719,189.576,605.052,191.029Z" transform="translate(-540.741 -149.37)" fill="#d1bfb4"/></g><path d="M479.847,123.444v75.565a4.8,4.8,0,0,0,3.019,4.458c20.143,8.029,45.213,20.356,46.433,20.957l.048.022.048-.022c1.22-.6,26.29-12.928,46.433-20.957a4.8,4.8,0,0,0,3.019-4.458V123.444a4.8,4.8,0,0,0-4.8-4.8h-89.4A4.8,4.8,0,0,0,479.847,123.444Z" transform="translate(-6.144 -7.277)" fill="#fff" opacity="0.5"/><path d="M607.545,212.313c-.2-3.362-.385-6.726-.625-10.087-.121-1.731-.338-3.457-.525-5.185-.219-2.016-.433-4.037-.694-6.048-.1-.726-.325-1.435-.5-2.2.129-.108.343-.28.625-.515-.275-.2-.467-.33-.652-.47-.615-.47-1.24-.918-1.831-1.414A12.466,12.466,0,0,0,599,183.667a7.6,7.6,0,0,1-1.082-.509,5.246,5.246,0,0,0-3.14-.612v.67a4.417,4.417,0,0,1-3.129-1.934,8.524,8.524,0,0,0-1.781-1.68,6.579,6.579,0,0,0-1.826-.539c.193-1.055.383-2.119.578-3.192h1.232c.364-1.217.8-2.393,1.056-3.607a2.179,2.179,0,0,0-1.261-2.776v-1.449A3.63,3.63,0,0,0,591.719,165a7.59,7.59,0,0,0-2.38-6.675,11.689,11.689,0,0,0-4.021-2.557,12.5,12.5,0,0,0-9.821.071,7.048,7.048,0,0,0-1.976,1.179,9.468,9.468,0,0,0-2.1,2.464c-1.024,1.913-1.649,3.818-1,5.976a4.944,4.944,0,0,1,.105.488c-.921.491-1.807.921-2.646,1.427a7.691,7.691,0,0,1-3.4,1.483,1.372,1.372,0,0,0-.591.235c-1.5.942-3,1.894-4.609,2.913-.206-.029-.546-.092-.889-.132a2.322,2.322,0,0,0-2.119.631,30.143,30.143,0,0,1-3.124,2.7c-.99.757-2.079,1.383-3.111,2.087-1.119.762-2.248,1.52-3.33,2.335q-2.1,1.579-4.129,3.253a16.1,16.1,0,0,0-1.955,1.863c-.707.818-1.287,1.747-1.974,2.586a12.033,12.033,0,0,0-1.91,3.573,2.716,2.716,0,0,0,.728,3.005A12.352,12.352,0,0,0,542,196.96a15.192,15.192,0,0,0,1.842.53c1.451.346,2.9.726,4.369.981a24.581,24.581,0,0,1,5.245,1.029,5.421,5.421,0,0,0,3.562.541c.5,1.05.963,2.01,1.422,2.968a11.44,11.44,0,0,1,1.3,3.335,34.238,34.238,0,0,0,.786,3.924,38.171,38.171,0,0,1,1.565,12.738c-.174,2.235-.225,4.48-.332,6.72-.029.586-.121,1.172-.108,1.757.09,3.581.171,7.164.322,10.742.047,1.174-.082,2.459.852,3.089.34,1.932.588,3.62.944,5.282.032.148.063.3.1.443,5.164-2.522,25.589-12.409,44.04-20.06C607.954,224.756,607.917,218.535,607.545,212.313Zm-33.089-29.475c-1.567-.43-3.05-.834-4.533-1.243a25.116,25.116,0,0,0-7.541-.726c-.1,0-.188.087-.317.15.111.232.209.441.235.5-.515.726-.961,1.393-1.457,2.026a3.313,3.313,0,0,1-.894.845,1.378,1.378,0,0,0-.636,1.348c-.314.071-.62.14-.924.211a3.812,3.812,0,0,0-1.156.282,2.682,2.682,0,0,1-2.377.129,1.789,1.789,0,0,1,.261-.456c.926-.845,1.865-1.673,2.8-2.509.826-.741,1.644-1.491,2.475-2.227.715-.634,1.438-1.256,2.166-1.876.557-.475,1.066-.976,1.066-1.52,1.021-.894,1.9-1.657,2.76-2.43a1.406,1.406,0,0,0,.38-.509,4.009,4.009,0,0,1,2.282-2.119,2.59,2.59,0,0,0,1.4-1.736c.18-.578-.09-.981-.778-1.314.733-.5,1.454-1,2.193-1.512.319.214.625.42.952.641.164.8.33,1.612.5,2.446-.641.3-.683.813-.515,1.412.314,1.1.6,2.214.926,3.311a2.361,2.361,0,0,0,.4.673,4.649,4.649,0,0,1,.644.855c.4,1.037.736,2.1,1.082,3.106C575.366,181.377,574.93,182.076,574.455,182.839Zm24.509,45.517-.285,0c-.2-1.414-.48-2.826-.581-4.248-.2-2.868-.311-5.747-.456-8.62a2.136,2.136,0,0,1,.053-.626,3.409,3.409,0,0,1,.633,2.127,26.657,26.657,0,0,0,.736,6.332A10.982,10.982,0,0,1,598.964,228.355Z" transform="translate(-39.428 -28.503)" fill="#131f47"/><g transform="matrix(1, 0, 0, 1, 454.38, 96.24)" filter="url(#a)"><path d="M571.859,106.245H474.85a5.211,5.211,0,0,0-5.211,5.211v84.082a5.205,5.205,0,0,0,3.276,4.838c21.858,8.713,49.063,22.09,50.387,22.742l.052.024.052-.024c1.324-.652,28.529-14.029,50.388-22.742a5.205,5.205,0,0,0,3.276-4.838V111.456A5.211,5.211,0,0,0,571.859,106.245Zm1,85.487a4.8,4.8,0,0,1-3.019,4.459c-20.143,8.029-45.212,20.356-46.433,20.957l-.048.022-.048-.022c-1.22-.6-26.29-12.928-46.433-20.957a4.8,4.8,0,0,1-3.019-4.459V116.167a4.8,4.8,0,0,1,4.8-4.8h89.4a4.8,4.8,0,0,1,4.8,4.8Z" transform="translate(-454.53 -96.24)" fill="#ffb900"/></g><g transform="matrix(1, 0, 0, 1, 454.38, 96.24)" filter="url(#c)"><path d="M474.61,408.461l-3.481-.04q-.89-6.419-1.749-12.842c1.105.12,1.658.179,2.763.292.293,3.382.44,5.064.734,8.411.356-3.32.534-4.969.889-8.247,1.091.108,1.637.16,2.729.262Q475.539,402.376,474.61,408.461Zm8.67-6.983c0,.833,0,1.248,0,2.081-1.156-.045-1.735-.068-2.891-.116,0,1.185,0,1.777,0,2.962,1.421.033,2.131.049,3.552.078,0,.829,0,1.244,0,2.073-2.514-.023-3.771-.035-6.284-.062q0-6.045-.01-12.092c2.376.215,3.564.314,5.942.5l0,2.061c-1.285-.084-1.927-.128-3.212-.22,0,1.033,0,1.549,0,2.582C481.545,401.388,482.123,401.419,483.28,401.478Zm6.687,7.128-2.732-.022c0-3.764-.007-5.647-.012-9.411-.978-.058-1.467-.088-2.445-.15,0-.812,0-1.218,0-2.03,3.041.229,4.562.331,7.6.512l0,1.951c-.971-.049-1.457-.074-2.428-.127C489.959,403.039,489.961,404.895,489.967,408.606Zm9.241-6.483c0,.77,0,1.156,0,1.926-1.158-.026-1.736-.04-2.893-.07,0,1.089,0,1.634,0,2.724,1.421.021,2.132.03,3.553.048l0,1.921c-2.514-.013-3.771-.021-6.285-.038-.006-4.423-.009-6.634-.016-11.057,2.379.136,3.568.2,5.947.3,0,.764,0,1.145,0,1.908-1.286-.05-1.929-.076-3.215-.132l0,2.374C497.472,402.069,498.051,402.088,499.208,402.122Zm4.742,6.567-2.715-.013c-.005-4.289-.008-6.434-.014-10.723,1.658.07,2.487.1,4.145.158a3.883,3.883,0,0,1,1.912.428,2.6,2.6,0,0,1,1.039,2.356,2.963,2.963,0,0,1-.463,1.865,1.7,1.7,0,0,1-.911.511c.876.339,1.215.885,1.36,2.174,0,.89,0,1.334,0,2.223a4.6,4.6,0,0,0,.09,1.039l-2.8-.01c0-1.19,0-1.786,0-2.976,0-.059-.072-.723-.09-.8-.108-.5-.483-.73-1.269-.744a1.055,1.055,0,0,0-.285.024C503.947,406,503.948,406.9,503.95,408.689Zm.457-6.192c.929.021,1.179-.269,1.177-1.4,0-.957-.234-1.258-.984-1.281l-.661-.02c0,1.077,0,1.616,0,2.694Zm8.061,4.307c-.135.765-.2,1.148-.338,1.914l-2.732-.008c.946-4.188,1.42-6.27,2.367-10.42,1.379.03,2.069.043,3.449.063.967,4.163,1.451,6.236,2.417,10.375l-2.822,0c-.129-.763-.193-1.145-.323-1.909Zm.978-6.743c-.313,2-.47,3-.783,5l1.607.012C513.94,403.074,513.775,402.071,513.445,400.061Zm12.722,8.67H523.06l-1.84-5.621c0,2.248,0,3.373,0,5.621l-2.7,0c0-4.135,0-6.2,0-10.336,1.215.011,1.823.014,3.038.018.744,2.21,1.115,3.314,1.859,5.521v-5.518c1.1,0,1.651,0,2.752-.008C526.168,402.536,526.168,404.6,526.167,408.731Zm4.629-5.03c0,.693,0,1.039,0,1.732-1.515.009-2.272.012-3.787.016,0-.69,0-1.036,0-1.726C528.524,403.718,529.281,403.713,530.8,403.7Zm1.181-2.193a3.253,3.253,0,0,1,.752-2.558,4.533,4.533,0,0,1,2.878-.872,3.461,3.461,0,0,1,3.144,1.263,3.068,3.068,0,0,1,.409,2.013c0,1.526,0,2.288,0,3.813,0,1.452-.109,2-.485,2.5a3.856,3.856,0,0,1-3.091,1.239,3.8,3.8,0,0,1-3.16-1.165,2.48,2.48,0,0,1-.392-1.488c-.034-.4-.053-.81-.053-1.012C531.976,403.746,531.976,403,531.977,401.508Zm4.52-.069c0-1.341-.177-1.658-.91-1.642a.8.8,0,0,0-.751.422c-.1.244-.107.278-.126,1.251,0,1.5,0,2.249,0,3.747.017,1.264.017,1.293.124,1.51a.734.734,0,0,0,.732.432.821.821,0,0,0,.786-.4c.092-.182.107-.38.144-1.561C536.495,403.695,536.5,402.942,536.5,401.438Zm13.316,7.213-3.286.019c-.232-2.628-.348-3.939-.581-6.556-.268,2.631-.4,3.944-.669,6.562l-3.5.017c-.674-4.24-1.011-6.349-1.685-10.55,1.13-.036,1.694-.056,2.823-.1.346,3.035.52,4.556.866,7.607.34-3.061.509-4.6.849-7.674,1.043-.043,1.564-.066,2.607-.114.332,3.078.5,4.622.829,7.719.347-3.109.52-4.669.868-7.8,1.115-.055,1.672-.084,2.786-.146C550.957,402.079,550.576,404.281,549.813,408.651Zm10.732-.079-3.107.026c-.732-2.458-1.1-3.675-1.83-6.088,0,2.441,0,3.661-.009,6.1l-2.7.019c.006-4.425.009-6.637.015-11.062,1.214-.07,1.821-.106,3.035-.183.739,2.354,1.109,3.541,1.849,5.938l.008-6.06c1.1-.074,1.65-.113,2.749-.193C560.554,401.672,560.551,403.972,560.545,408.572Zm7.328-7.353c0,.857,0,1.286,0,2.143-1.156.051-1.734.075-2.891.122,0,1.177,0,1.766,0,2.942,1.421-.032,2.131-.049,3.552-.084l0,2.153c-2.514.026-3.771.038-6.284.061.006-4.645.008-6.968.014-11.613,2.377-.182,3.565-.28,5.941-.492,0,.852,0,1.279,0,2.131-1.285.1-1.927.143-3.212.233,0,1.026,0,1.539,0,2.565C566.138,401.319,566.716,401.286,567.873,401.219Zm5.908-5.3a3.342,3.342,0,0,1,2.3.452,2.8,2.8,0,0,1,.856,1.965c.054.477.089,2.242.089,4.349a15.9,15.9,0,0,1-.232,3.9c-.393,1.312-1.214,1.834-2.928,1.853l-3.981.045q0-6.092.009-12.184C571.448,396.154,572.226,396.078,573.781,395.92Zm-.861,10.588c1.321-.1,1.376-.193,1.376-4.06,0-1.82-.053-2.9-.07-3.232-.055-1.027-.267-1.253-1.141-1.23l-.5.043c0,3.4,0,5.093,0,8.489Zm-96.436,6.243c3.581.013,4.959,1.672,4.959,5.945,0,2.8-.674,4.1-2.326,4.447,1.959.432,2.694,1.808,2.694,4.906,0,4.752-1.255,6.342-5.02,6.442-2.951.078-4.426.121-7.376.211V412.723Zm-1.683,8.92c.826-.007,1.041-.081,1.347-.375.413-.4.551-.944.551-2.336,0-2.029-.368-2.634-1.683-2.632H474.1v5.349Zm.49,9.341c1.377-.031,1.744-.644,1.744-2.883,0-2.361-.459-2.93-2.265-2.9l-.674.01v5.805Zm21.03-2.679c0,.415-.066,1.249-.153,1.958a4.028,4.028,0,0,1-2.02,3.291,7.983,7.983,0,0,1-3.918.991c-2.663.052-4.776-.918-5.663-2.61a7.255,7.255,0,0,1-.612-3.468v-15.72l4.715.014v15.637c0,1.85.337,2.441,1.438,2.424,1.041-.016,1.439-.676,1.439-2.462V412.8l4.776.011Zm10.011-8.71v-1.678c0-1.236-.52-1.913-1.5-1.912a1.331,1.331,0,0,0-1.47,1.474c0,1.209.368,1.653,3.031,3.91,3.8,3.2,4.807,4.745,4.807,7.535,0,3.436-2.174,5.357-6.062,5.4-2.909.031-5.113-.913-6-2.558a6.5,6.5,0,0,1-.643-3.483v-1.6c1.91-.016,2.865-.024,4.776-.037v1.946c0,1.474.551,2.176,1.653,2.166a1.445,1.445,0,0,0,1.531-1.631c0-1.442-.612-2.32-2.664-3.958-3.98-3.13-5.113-4.787-5.113-7.448,0-3.312,2.235-5.318,5.97-5.312,2.97,0,5.3,1.33,5.909,3.357a14.863,14.863,0,0,1,.306,3.818Zm11.757,14.259c-1.886.005-2.829.009-4.715.02V412.831l4.715,0Zm16.044.026c-2.131-.013-3.2-.018-5.327-.025-1.262-4.589-1.892-6.881-3.154-11.466v11.458c-1.849,0-2.774,0-4.623,0V412.835h5.2c1.274,4.5,1.911,6.752,3.184,11.258V412.833l4.715,0Zm12.553-12.732v3.783c-1.984-.014-2.976-.02-4.959-.031V430.2c2.437.021,3.656.033,6.093.06v3.786c-4.311-.061-6.466-.084-10.777-.119v-21.1c4.078,0,6.117-.007,10.2-.015v3.755l-5.511,0v4.6Zm10.868-1.495v-1.7c0-1.253-.52-1.939-1.5-1.94a1.335,1.335,0,0,0-1.469,1.486c0,1.22.367,1.66,3.03,3.975,3.8,3.277,4.806,4.893,4.806,7.743,0,3.51-2.173,5.407-6.061,5.332-2.908-.056-5.112-1.071-6-2.743a6.616,6.616,0,0,1-.643-3.5v-1.6c1.91.018,2.865.027,4.776.048v1.963c0,1.487.551,2.209,1.653,2.226a1.416,1.416,0,0,0,1.531-1.616c0-1.462-.612-2.369-2.663-4.055-3.979-3.222-5.112-4.874-5.112-7.54,0-3.318,2.235-5.338,5.97-5.348,2.969-.009,5.3,1.33,5.908,3.4a15.521,15.521,0,0,1,.306,3.9Zm14.571.08v-1.732c0-1.276-.52-1.976-1.5-1.976a1.346,1.346,0,0,0-1.469,1.511c0,1.24.367,1.687,3.03,4.051,3.8,3.347,4.805,5.005,4.805,7.914,0,3.581-2.173,5.5-6.06,5.391-2.908-.081-5.111-1.131-6-2.835a6.83,6.83,0,0,1-.643-3.561V426.9c1.91.027,2.865.042,4.775.072v2c0,1.513.551,2.25,1.653,2.275.98.022,1.531-.573,1.531-1.636,0-1.489-.612-2.417-2.663-4.142-3.979-3.3-5.111-4.969-5.111-7.676,0-3.368,2.235-5.421,5.969-5.437,2.969-.012,5.3,1.349,5.907,3.46a16.145,16.145,0,0,1,.306,3.978Z" transform="translate(-454.38 -266.09)" fill="#fff"/></g></g></svg>